<?xml version="1.0" encoding="UTF-8" standalone="no"?>
<!-- Created with Inkscape (http://www.inkscape.org/) -->
<!DOCTYPE svg  PUBLIC '-//W3C//DTD SVG 1.1//EN'  'http://www.w3.org/Graphics/SVG/1.1/DTD/svg11.dtd' [
	<!ENTITY stroke_color "#010101">
	<!ENTITY fill_color "#ffffff">
]>
<svg
   xmlns:dc="http://purl.org/dc/elements/1.1/"
   xmlns:cc="http://creativecommons.org/ns#"
   xmlns:rdf="http://www.w3.org/1999/02/22-rdf-syntax-ns#"
   xmlns:svg="http://www.w3.org/2000/svg"
   xmlns="http://www.w3.org/2000/svg"
   xmlns:sodipodi="http://sodipodi.sourceforge.net/DTD/sodipodi-0.dtd"
   xmlns:inkscape="http://www.inkscape.org/namespaces/inkscape"
   width="128"
   height="128"
   viewBox="0 0 128 128"
   id="svg3336"
   version="1.1"
   inkscape:version="0.91 r13725"
   sodipodi:docname="block-comment.svg">
  <defs
     id="defs3338" />
  <sodipodi:namedview
     id="base"
     pagecolor="#010101"
     bordercolor="#666666"
     borderopacity="1.0"
     inkscape:pageopacity="1"
     inkscape:pageshadow="2"
     inkscape:zoom="4.3282543"
     inkscape:cx="-19.222343"
     inkscape:cy="55.118069"
     inkscape:document-units="px"
     inkscape:current-layer="layer1"
     showgrid="false"
     units="px"
     inkscape:window-width="2560"
     inkscape:window-height="1017"
     inkscape:window-x="-8"
     inkscape:window-y="-8"
     inkscape:window-maximized="1" />
  <metadata
     id="metadata3341">
    <rdf:RDF>
      <cc:Work
         rdf:about="">
        <dc:format>image/svg+xml</dc:format>
        <dc:type
           rdf:resource="http://purl.org/dc/dcmitype/StillImage" />
        <dc:title></dc:title>
      </cc:Work>
    </rdf:RDF>
  </metadata>
  <g
     inkscape:label="Layer 1"
     inkscape:groupmode="layer"
     id="layer1"
     transform="translate(0,-924.36216)">
    <path
       style="fill:&fill_color;"
       d="M 4.390625 26.804688 L 4.390625 89.878906 L 124.99219 89.878906 L 124.99219 26.804688 L 4.390625 26.804688 z M 31.941406 42.544922 L 34.460938 42.544922 L 32.410156 50.787109 L 37.683594 50.787109 L 39.734375 42.544922 L 42.253906 42.544922 L 40.203125 50.787109 L 46.023438 50.787109 L 46.023438 53.423828 L 39.519531 53.423828 L 37.722656 60.767578 L 43.738281 60.767578 L 43.738281 63.404297 L 37.039062 63.404297 L 35.007812 71.626953 L 32.488281 71.626953 L 34.519531 63.404297 L 29.246094 63.404297 L 27.214844 71.626953 L 24.695312 71.626953 L 26.726562 63.404297 L 20.90625 63.404297 L 20.90625 60.767578 L 27.410156 60.767578 L 29.207031 53.423828 L 23.191406 53.423828 L 23.191406 50.787109 L 29.890625 50.787109 L 31.941406 42.544922 z M 31.707031 53.384766 L 29.871094 60.806641 L 35.222656 60.806641 L 37.058594 53.384766 L 31.707031 53.384766 z "
       transform="translate(0,924.36216)"
       id="rect4348" />
  </g>
</svg>
