<?xml version="1.0" encoding="UTF-8" standalone="no"?>
<!-- Created with Inkscape (http://www.inkscape.org/) -->
<!DOCTYPE svg  PUBLIC '-//W3C//DTD SVG 1.1//EN'  'http://www.w3.org/Graphics/SVG/1.1/DTD/svg11.dtd' [
	<!ENTITY stroke_color "#010101">
	<!ENTITY fill_color "#ffffff">
]>
<svg
   xmlns:dc="http://purl.org/dc/elements/1.1/"
   xmlns:cc="http://creativecommons.org/ns#"
   xmlns:rdf="http://www.w3.org/1999/02/22-rdf-syntax-ns#"
   xmlns:svg="http://www.w3.org/2000/svg"
   xmlns="http://www.w3.org/2000/svg"
   xmlns:sodipodi="http://sodipodi.sourceforge.net/DTD/sodipodi-0.dtd"
   xmlns:inkscape="http://www.inkscape.org/namespaces/inkscape"
   width="128"
   height="128"
   viewBox="0 0 128 128"
   id="svg3336"
   version="1.1"
   inkscape:version="0.91 r13725"
   sodipodi:docname="mode-mod.svg">
  <defs
     id="defs3338" />
  <sodipodi:namedview
     id="base"
     pagecolor="#010101"
     bordercolor="#666666"
     borderopacity="1.0"
     inkscape:pageopacity="1"
     inkscape:pageshadow="2"
     inkscape:zoom="8.6565086"
     inkscape:cx="57.29297"
     inkscape:cy="78.557818"
     inkscape:document-units="px"
     inkscape:current-layer="svg3336"
     showgrid="false"
     units="px"
     inkscape:window-width="2560"
     inkscape:window-height="1017"
     inkscape:window-x="-8"
     inkscape:window-y="-8"
     inkscape:window-maximized="1" />
  <metadata
     id="metadata3341">
    <rdf:RDF>
      <cc:Work
         rdf:about="">
        <dc:format>image/svg+xml</dc:format>
        <dc:type
           rdf:resource="http://purl.org/dc/dcmitype/StillImage" />
        <dc:title />
      </cc:Work>
    </rdf:RDF>
  </metadata>
  <g
     inkscape:label="Layer 1"
     inkscape:groupmode="layer"
     id="layer1"
     transform="translate(0,-924.36216)" />
  <path
     style="fill:&fill_color;"
     d="m 64.041016,10.373047 c -1.800327,5.32e-4 -3.599484,0.09179 -5.390625,0.273437 l 0,7.078125 c 0,1.157582 -0.143647,2.446526 0,3.595703 0.155465,1.243722 0.08195,2.534768 0.326171,3.75586 0.115058,0.575287 -0.09643,1.218265 0,1.796875 0.09004,0.540252 0.395125,0.900074 0.490235,1.470703 0.0616,0.369575 -0.0734,0.777533 0,1.144531 0.32122,1.6061 0.816406,3.407941 0.816406,5.064453 l 0,4.574219 c 0,0.639084 -0.133362,1.436201 -0.152344,1.988281 0.08764,0.0082 0.152344,0.03897 0.152344,0.134766 0,0.05446 -0.162109,0.05446 -0.162109,0 0,-0.03657 0.0084,-0.09531 0.0098,-0.134766 -3.382089,0.267004 -10.280087,2.755901 -10.792968,5.527344 -0.16337,0.05446 -0.318028,0.162105 -0.490235,0.16211 -0.05163,0 -0.38812,-0.55023 -0.490234,-0.652344 -0.186626,-0.186626 -0.824424,-0.17208 -0.980469,-0.328125 -0.07701,-0.07701 0.07701,-0.249162 0,-0.326172 -0.07701,-0.07701 -0.249162,0.07701 -0.326172,0 -0.407995,-0.407995 -0.793886,-0.800742 -1.30664,-1.142578 -0.336696,-0.224464 -0.04143,-0.355091 -0.490235,-0.654297 -0.937432,-0.624954 -0.573523,-0.573524 -1.30664,-1.306641 -0.988353,-0.988353 -2.269764,-1.676587 -3.431641,-2.451172 -0.316651,-0.211101 -0.502989,-0.667051 -0.816406,-0.980468 -0.730043,-0.730043 -2.058259,-1.241852 -2.777344,-1.960938 -0.12177,-0.121768 -0.06854,-0.344997 -0.164063,-0.488281 -0.262939,-0.39441 -0.05458,0.05376 -0.490234,-0.164063 -0.347912,-0.173956 -0.562309,-1.052543 -0.816406,-1.30664 -0.684066,-0.684066 -1.451133,-0.962852 -2.123047,-1.634766 -0.544591,-0.544591 -0.997015,-1.327399 -1.470703,-1.958984 -0.222859,-0.297144 -0.580682,-0.418573 -0.816406,-0.654297 -0.390766,-0.390766 -0.755668,-1.18321 -0.980469,-1.632813 -0.230551,-0.461102 -0.67598,-0.738545 -0.980469,-1.144531 -0.329838,-0.439783 -1.42932,-1.93927 -1.796875,-2.123047 -1.414659,-0.707329 0.850047,0.838834 -0.654297,-0.164062 -0.01268,-0.0085 -0.02634,-0.01696 -0.03906,-0.02539 -3.067212,3.028104 -5.757878,6.415209 -8.013672,10.087891 0.4718,0.334432 0.900159,0.755628 1.191406,1.046875 0.07701,0.07701 0.249158,-0.07701 0.326172,0 0.142229,0.14223 0.245441,0.489148 0.490234,0.652344 0.408835,0.272556 0.709162,0.345111 1.144532,0.490234 0.21119,0.0704 0.573143,0.614697 0.652343,0.654297 0.179345,0.08967 0.844063,0.189766 0.980469,0.326172 0.106632,0.106632 0.254028,0.506101 0.328125,0.654297 0.312602,0.625203 1.800349,1.24349 2.449219,1.632812 0.840734,0.50444 -0.236114,0.15055 0.654297,0.818359 0.170334,0.12775 0.731284,0.160048 0.980469,0.326172 1.215939,0.810626 2.507514,1.372869 3.757812,2.123047 0.536056,0.321634 1.296884,0.404302 1.796875,0.654297 0.08534,0.04267 0.368486,0.530596 0.490234,0.652344 0.14719,0.147189 0.639765,0.315546 0.978516,0.654297 0.443591,0.443591 1.421475,0.512102 1.634766,0.654296 0.341273,0.227515 0.251239,0.776987 0.654297,0.978516 0.323985,0.161992 0.795474,0.471256 0.978515,0.654297 0.05702,0.05703 0.456328,-0.06781 0.490235,0 0.165387,0.330773 -0.134366,0.585161 0.328124,0.816406 0.624863,0.312431 1.189685,0.840936 1.796876,1.144531 0.09742,0.04871 0.249158,-0.07701 0.326171,0 0.05446,0.05446 0.109606,0.435778 0.164063,0.490235 0.07701,0.07701 0.228757,-0.04871 0.326172,0 0.394478,0.197239 0.924272,0.5981 1.142578,0.816406 0.08169,0.08169 0.408549,-0.08169 0.490234,0 0.192716,0.192716 0.416492,0.906726 0.490235,0.980469 0.02682,0.02682 1.124331,0.515612 1.30664,0.652344 -0.743907,-0.338979 -0.786862,1.374876 -0.978515,1.470703 -0.146123,0.07306 -0.417174,-0.146122 -0.490235,0 -0.09741,0.19483 0.09742,0.459467 0,0.654297 -0.110978,0.221956 -0.495473,0.662819 -0.654297,0.980468 -0.22225,0.444499 -0.229572,6.989019 0,7.677735 0.138401,0.415203 -0.300857,1.986253 0,2.287109 0.807668,0.807668 0.460233,2.747342 1.306641,3.59375 0.136141,0.136141 -0.136142,0.680264 0,0.816406 0.216854,0.216854 0.490234,0.522288 0.490234,0.980469 0,0.263784 0.310403,1.160301 0.164063,1.306641 -0.227892,0.227893 -0.690014,0.527903 -0.980469,0.818359 -0.591216,0.591216 -0.905164,1.557507 -1.470703,2.123047 -0.310451,0.31045 -0.832127,0.343846 -1.142578,0.654297 -0.121769,0.121768 -0.06074,0.352468 -0.164063,0.490234 -0.29208,0.389439 -1.166593,0.512297 -1.470703,0.816407 -0.53018,0.53018 -0.848417,1.224095 -1.30664,1.796874 0.327873,1.345467 -0.461764,0.297702 -0.654297,0.490235 -0.749317,0.749317 -1.681164,1.735503 -2.449219,2.613281 -0.229616,0.262418 -0.602329,0.379056 -0.816406,0.654297 -0.76277,0.980705 -1.410208,2.226614 -2.28711,3.103516 -0.66561,0.665609 -1.644275,1.152088 -2.289062,1.796875 -1.030938,1.030938 -1.959379,2.215713 -3.265625,2.941406 -0.362539,0.201411 -0.747292,0.371062 -1.144531,0.490234 -0.15648,0.04694 -0.350147,-0.08405 -0.490235,0 -0.168366,0.101019 -0.162802,0.381322 -0.326172,0.490235 -0.10283,0.06855 -1.443644,0.860771 -1.796875,0.978515 -0.860042,0.286681 -1.839785,0.445556 -2.703125,0.75586 2.037342,2.948864 4.365408,5.685873 6.949219,8.169923 -0.0054,-0.0363 -0.01929,-0.0746 0,-0.10352 0.131082,-0.19662 2.120906,-1.38511 2.451172,-1.63281 0.315163,-0.23637 0.529073,-1.076774 0.816406,-1.30664 0.268942,-0.215154 0.704937,-0.121477 0.980469,-0.328125 1.269503,-0.952127 2.429827,-1.727956 3.757813,-2.613282 0.184761,-0.123175 0.570114,-0.434112 0.654296,-0.490234 0.186821,-0.124547 0.551931,0.03677 0.652344,-0.164062 0.600863,-1.201726 0.314941,-0.477051 1.144531,-1.306641 0.273066,-0.273067 0.656367,-1.228691 0.816407,-1.46875 0.209448,-0.314173 0.606958,-0.504186 0.816406,-0.818359 0.178823,-0.268234 0.218927,-1.035334 0.490234,-1.306641 0.121769,-0.121769 0.386911,-0.02629 0.490235,-0.164063 0.09802,-0.130696 -0.07306,-0.342158 0,-0.488281 0.05446,-0.108913 0.240068,-0.07796 0.326171,-0.164062 0.258311,-0.25831 0.2876,-0.676516 0.490235,-0.980469 0.222066,-0.333099 0.637146,-0.618044 0.818359,-0.980469 0.135269,-0.270539 0.02476,-0.705765 0.16211,-0.980469 0.05446,-0.108913 0.273668,-0.0532 0.328125,-0.162109 0.04871,-0.09741 -0.06041,-0.237504 0,-0.328125 0.399016,-0.598524 1.256333,-0.879856 1.632812,-1.632812 0.07306,-0.146122 -0.03962,-0.331742 0,-0.490235 0.04735,-0.189391 1.239881,-1.661403 1.470703,-2.123047 -0.04255,-0.345162 0.258627,-0.06274 0.326172,-0.164062 0.367371,-0.551057 0.552436,-1.268934 0.816406,-1.796875 0.339953,-0.679907 -0.0099,0.173955 0.328125,-0.164063 0.23605,-0.23605 0.450692,-0.778816 0.652344,-0.980468 0.07701,-0.07701 0.249159,0.07701 0.326172,0 0.07701,-0.07701 -0.07701,-0.249158 0,-0.326172 0.08169,-0.08168 0.408549,0.08169 0.490234,0 l 0.490235,-0.490235 c 0.08169,-0.08168 0.408549,0.08169 0.490234,0 0.390988,-0.390988 -0.311703,-0.490234 0.81836,-0.490234 -0.165628,0.773141 0.09598,1.010331 0.326171,1.470703 0.04871,0.09741 -0.06041,0.235551 0,0.326172 0.100359,0.150538 0.557646,0.233427 0.652344,0.328125 0.921975,0.921975 2.263828,1.53914 3.431641,2.123047 0.206648,0.103324 0.27105,0.417172 0.490234,0.490234 0.156969,0.05232 1.165998,0.02342 1.306641,0.164063 0.04658,0.04658 0.57781,0.450037 0.654297,0.488281 0.25782,0.128909 1.106809,-0.199831 1.30664,0 0.338018,0.338018 -0.517797,-0.01182 0.16211,0.328125 0.09864,0.04932 0.414714,-0.07552 0.490234,0 0.257657,0.257657 -0.261013,1.275227 -0.326172,1.470703 -0.546059,1.638177 -0.816406,4.443601 -0.816406,6.207031 0,0.661798 -0.231947,1.301362 -0.326172,1.960938 -0.0556,0.389174 0.0977,0.915858 0,1.306641 -0.201631,0.806522 -0.323651,1.618256 -0.490234,2.451171 -0.44502,2.225102 0.339442,4.04417 -0.490235,6.5332 -0.223869,0.67161 0,1.88266 0,2.61524 l 0,6.86133 c 0,0.47696 -0.07794,1.06659 0.16211,1.30664 0.217827,0.21783 -0.217826,1.08882 0,1.30664 0.0605,0.0605 0.10756,0.54065 0.142578,1.0664 2.441662,0.35901 4.905209,0.54892 7.373047,0.56836 1.092583,-0.0219 2.184239,-0.0773 3.273437,-0.16601 -0.0032,-0.0516 -4.85e-4,-0.11374 -0.0059,-0.16211 -0.375375,-3.37837 -0.164063,-6.87553 -0.164063,-10.29102 0,-1.00899 0.292076,-3.37182 0,-4.24805 -0.08433,-0.25299 -0.228732,-0.52407 -0.326172,-0.8164 -0.280273,-0.84081 0.392316,-2.156775 0,-2.941407 -0.432639,-0.865277 -0.164062,-2.913222 -0.164062,-4.083984 0,-1.210597 -0.0706,-2.420464 0.164062,-3.59375 0.09144,-0.457195 -0.146427,-1.031424 0,-1.470704 0.185711,-0.557134 0.292881,-1.204815 0.490235,-1.796875 0.311553,-0.934661 -0.202455,-1.920591 0.490234,-2.613281 0.141365,-0.141364 -0.08834,-0.803794 0,-0.980469 0.04871,-0.09741 0.228762,0.04871 0.326172,0 0.296967,-0.148483 0.321328,-0.490234 0.654297,-0.490234 0.519596,0 0.710311,-0.05797 0.980469,-0.328125 0.23565,-0.235651 1.158715,0.155017 1.46875,0 0.337205,-0.168603 0.568473,-0.56652 0.818359,-0.816406 0.204175,-0.204175 1.018834,-0.230232 1.306641,-0.326172 0.146122,-0.04871 0.188404,-0.257292 0.326172,-0.326172 0.39248,-0.19624 2.160859,-0.692109 2.287109,-0.818359 0.534024,-0.534024 1.122444,-0.630256 1.634765,-1.142579 0.119062,-0.119059 0.165037,-0.493161 0.326172,-0.654296 0.07701,-0.07701 0.249162,-0.07701 0.326172,0 0.245055,0.245055 0.409242,0.573304 0.654297,0.818359 0.07701,0.07701 -0.07701,0.249162 0,0.326172 0.498268,0.498268 0.581244,0.543739 0.980469,1.142578 0.06042,0.09062 0.249162,-0.07701 0.326172,0 0.231611,0.23161 0.542899,0.380789 0.652344,0.490234 0.161135,0.161135 0.209068,0.535237 0.328124,0.654297 0.07702,0.07701 0.249162,-0.07701 0.326172,0 0.12177,0.121768 0.04229,0.368466 0.164063,0.490235 0.373823,0.373822 1.075325,0.683935 1.470703,0.980468 0.202536,0.151902 0.197916,0.688151 0.326172,0.816407 0.231131,0.231131 0.984512,1.07554 1.142578,1.470703 0.06067,0.151685 -0.03962,0.331742 0,0.490234 0.112384,0.449536 0.735759,0.775513 0.980469,1.142578 0.162671,0.244005 0.150218,0.581798 0.326172,0.816407 0.07306,0.09741 0.242025,0.07796 0.328125,0.164062 0.301383,0.301382 0.581232,1.078747 0.816406,1.470703 0.466585,0.777641 1.972377,2.405366 2.613281,2.939453 0.347686,0.289738 2.326637,1.409412 2.777344,1.634766 0.09741,0.04871 0.251115,-0.07701 0.328125,0 0.07701,0.07701 -0.04871,0.228762 0,0.326172 0.0283,0.0566 0.591544,0.103262 0.652344,0.164062 0.149953,0.149953 0.4519,0.561214 0.816406,0.652344 0.211323,0.05283 0.459467,-0.09741 0.654297,0 0.100767,0.05038 1.315999,0.694596 1.470703,0.818359 0.72731,0.581848 1.905558,2.585601 2.613281,2.93945 0.9516,0.4758 1.705221,1.0294 2.613281,1.63477 0.0359,0.0239 0.0992,0.0326 0.17188,0.0332 2.53986,-2.512763 4.82205,-5.273245 6.8125,-8.240232 -0.31436,-0.205717 -2.22396,-2.227862 -2.57227,-2.576172 -0.55824,-0.558238 -0.7389,-1.555312 -1.30664,-2.123047 -0.53341,-0.533412 -1.24616,-0.893608 -1.79687,-1.30664 -0.46,-0.01014 -0.0423,-0.368466 -0.16406,-0.490235 -0.0385,-0.03851 -0.10961,0 -0.16407,0 -0.10891,-0.05446 -0.24006,-0.07796 -0.32617,-0.164062 -0.36964,-0.36964 -0.88307,-1.047134 -1.30664,-1.470703 -0.0861,-0.0861 -0.21725,-0.107653 -0.32617,-0.16211 -0.16337,-0.108913 -0.3514,-0.189287 -0.49024,-0.328125 -0.544771,-0.544786 -1.140266,-1.445159 -1.960937,-1.796875 -1.280216,-0.548665 -2.526367,-1.536272 -3.59375,-2.451172 -0.32674,-0.280063 -0.653729,-0.745129 -0.980469,-0.978515 -0.413562,-0.295402 -0.913938,-0.425657 -1.30664,-0.81836 C 92.165851,78.849444 92.12564,78.625828 91.976562,78.498047 90.485339,77.219856 88.406527,77.153179 86.75,76.048828 c -0.03043,-0.02029 -0.637566,-0.147332 -0.654297,-0.164062 -0.204499,-0.2045 -0.690885,-0.36276 -0.980469,-0.652344 -0.338019,-0.338018 0.517797,0.01183 -0.162109,-0.328125 -0.09741,-0.04871 -0.251112,0.07701 -0.328125,0 -0.08169,-0.08168 0.08168,-0.408546 0,-0.490235 l -0.490234,-0.490234 c -0.07701,-0.07701 0.07701,-0.249158 0,-0.326172 -0.07701,-0.07701 -0.249159,0.07701 -0.326172,0 -0.290873,-0.290873 -0.589237,-0.427127 -0.816406,-0.654297 -0.343103,-0.343102 0.541739,-2.01244 0.652343,-2.123047 0.155255,-0.155253 -0.05655,-0.916366 0,-1.142578 0.09783,-0.391311 0.229528,-0.947336 0.328125,-1.144531 0.174261,-0.348523 -0.174262,-0.958117 0,-1.306641 0.291011,-0.582023 0.133815,-1.250052 0.326172,-1.634765 0.878945,-1.75789 0.654297,-4.52321 0.654297,-6.697266 0,-0.715138 -0.352509,-1.519471 -0.654297,-2.123047 -0.06888,-0.137766 -0.277465,-0.182002 -0.326172,-0.328125 -0.144341,-0.433023 0.01797,-0.452345 -0.164062,-0.816406 -0.02435,-0.04871 -0.109607,0 -0.164063,0 -0.05446,-0.108913 -0.123603,-0.210652 -0.162109,-0.326172 -0.144898,-0.434693 -0.197998,-2.48706 -0.326172,-2.615234 -0.02546,-0.02546 -0.36916,-0.283185 -0.164062,-0.488281 0.140574,-0.140574 2.599532,-1.872032 2.777343,-1.960938 0.338254,-0.169127 0.989902,0.152677 1.306641,-0.164062 0.03851,-0.03851 0,-0.109606 0,-0.164063 0.108914,-0.108913 0.198014,-0.240733 0.326172,-0.326172 0.08471,-0.05647 0.424368,-0.09624 0.490234,-0.162109 0.121769,-0.121768 0.04229,-0.368466 0.164063,-0.490234 0.07392,-0.07392 0.457671,-0.589407 0.652343,-0.654297 0.234231,-0.07808 0.637945,-0.05555 0.81836,-0.326172 0.06041,-0.09062 -0.04871,-0.23071 0,-0.328125 0.05446,-0.108914 0.258627,-0.06079 0.326172,-0.16211 0.240355,-0.360533 0.413941,-0.783999 0.654296,-1.144531 0.184789,-0.277184 0.707521,-0.598633 0.816407,-0.816406 0.124181,-0.248361 0.01925,-0.578301 0.162109,-0.816406 0.05604,-0.09339 0.237504,0.06041 0.328125,0 0.192237,-0.128158 0.351607,-0.305403 0.490235,-0.490235 0.103324,-0.137765 0.05879,-0.352468 0.162109,-0.490234 0.165676,-0.2209 0.666692,-0.426795 0.818359,-0.654297 0.06041,-0.09062 -0.06041,-0.23555 0,-0.326172 0.03663,-0.05495 1.108661,-0.955032 1.142578,-0.980469 0.179624,-0.134719 0.49553,-0.0033 0.654297,-0.162109 0.720962,-0.720962 1.836945,-1.443379 2.613281,-1.960937 0.438998,-0.292663 1.657392,-0.512861 1.960938,-0.816407 0.97879,-0.978791 2.76095,-1.463485 4.08398,-2.125 1.2003,-0.600146 3.01699,-1.550478 4.68555,-2.648437 -1.84749,-2.743223 -3.94498,-5.309513 -6.26562,-7.666016 -0.48302,0.264118 -0.83184,0.636533 -1.19727,1.001953 -0.15402,0.154027 -0.45205,-0.0809 -0.6543,0 -0.14301,0.0572 -0.18316,0.270925 -0.326168,0.328125 -0.493291,0.197316 -2.001476,0.499393 -2.613281,0.652344 -0.330597,0.08265 -0.388854,0.401754 -0.654297,0.490234 -1.244494,0.414831 -2.443081,0.587473 -3.59375,1.306641 -0.550153,0.343846 -1.067214,1.024819 -1.634766,1.308594 -0.09741,0.04871 -0.260822,-0.08713 -0.326172,0 -0.13472,0.179625 -0.07872,0.443873 -0.162109,0.652343 -0.177364,0.443409 -0.949952,0.69686 -1.308594,0.816407 -0.127184,0.04239 -1.56366,1.6651 -1.958984,1.796875 -0.103324,0.03444 -0.230715,-0.04871 -0.328125,0 -0.09741,0.04871 0.07701,0.251115 0,0.328125 -0.189295,0.189295 -0.608133,0.677557 -0.816406,0.816406 -0.303953,0.202635 -0.752263,0.204977 -0.980469,0.490234 -0.596201,0.745251 -1.071104,1.651973 -1.470703,2.451172 -0.02107,0.04214 -0.756097,0.786246 -0.816407,0.816407 -0.173503,0.08675 -0.506712,0.01648 -0.652343,0.162109 -0.223591,0.223591 -0.513234,0.862406 -0.654297,1.144531 -0.09368,0.187366 -1.259228,1.259228 -1.470703,1.470703 -0.08168,0.08169 -0.408555,-0.08169 -0.490235,0 -0.104341,0.104341 -0.317962,0.970307 -0.490234,1.142578 -0.05446,0.05446 -0.43577,0.109603 -0.490235,0.164063 -0.232544,0.232545 -0.35353,0.707061 -0.490234,0.980469 -0.05446,0.10891 -0.271712,0.0532 -0.326172,0.162109 -0.173095,0.346189 -0.240144,1.264603 -0.652344,1.470703 -0.36647,0.183233 -0.205089,-0.857433 -0.328124,-0.980469 l -0.816407,-0.816406 c -0.07701,-0.07701 0.07701,-0.249162 0,-0.326172 -0.07701,-0.07701 -0.228762,0.04871 -0.326172,0 -0.679907,-0.33995 0.173956,0.01185 -0.164062,-0.326172 -0.03196,-0.03196 -3.462836,-0.980468 -3.919922,-0.980468 -0.344342,0 -1.991439,-0.772538 -2.615234,-0.980469 -0.93386,-0.31129 0.987498,-0.03063 -0.490235,-0.326172 -0.742827,-0.148566 -1.884859,0 -1.632812,0 0.16337,0 0,-0.326864 0,-0.490234 0,-0.435096 0.164062,-0.574597 0.164062,-0.980469 0,-1.034404 0.325951,-1.962224 0.652344,-2.941406 0.2873,-0.8619 -0.04738,-1.540016 0.326172,-2.28711 0.63243,-1.26486 -0.17326,-3.060868 0.164062,-4.410156 0.353895,-1.415578 -0.223713,-3.739014 0.164063,-4.902344 0.658561,-1.97568 0.177715,-7.125078 -0.328125,-9.148437 -0.05907,-0.236266 -0.643961,-0.198455 -0.326172,-0.652344 -0.26766,-1.605964 -0.116645,-3.422765 0,-5.222656 -1.358671,-0.10856 -2.72099,-0.165242 -4.083984,-0.169922 z m 0,40.169058 c 7.40982,2.85e-4 13.416594,6.007059 13.416879,13.416879 -2.85e-4,7.40982 -6.007059,13.416595 -13.416879,13.41688 -7.40982,-2.85e-4 -13.416595,-6.00706 -13.41688,-13.41688 2.85e-4,-7.40982 6.00706,-13.416594 13.41688,-13.416879 z"
     id="path4192"
     inkscape:connector-curvature="0"
     sodipodi:nodetypes="ccssscsssscsscccsccsssssssssssssssscccscscssssssssssssccsscscscscsccsssssssssscscsssssscccscccsssssssssscccsscccsccssssccccccccsscssssssssssssssccccssscssssssccssssscsccscscsscssssccscssscccsccsccccssccccsccsssssccscccsccsccsssscsccsssssccccccsssscccccscsssscccscsssccssccsssscssccscccssccccssssssssssscccccccc" />
</svg>
